<svg width="512" height="512" viewBox="0 0 512 512" fill="none" xmlns="http://www.w3.org/2000/svg">
<path fill-rule="evenodd" clip-rule="evenodd" d="M256 315C289.137 315 316 288.137 316 255C316 221.863 289.137 195 256 195C222.863 195 196 221.863 196 255C196 288.137 222.863 315 256 315ZM256 290C275.33 290 291 274.33 291 255C291 235.67 275.33 220 256 220C236.67 220 221 235.67 221 255C221 274.33 236.67 290 256 290Z" fill="white"/>
<path fill-rule="evenodd" clip-rule="evenodd" d="M158 353.5V511.5H183V353.5H329V511.5H354V353.5H512V328.5H354L354 182.5H512V157.5H354V-0.5H329V157.5H183V-0.5H158V157.5H0V182.5H158L158 328.5H0V353.5H158ZM329 182.5L329 328.5H183L183 182.5H329Z" fill="white"/>
<path fill-rule="evenodd" clip-rule="evenodd" d="M256 145C289.137 145 316 118.137 316 85C316 51.8629 289.137 25 256 25C222.863 25 196 51.8629 196 85C196 118.137 222.863 145 256 145ZM256 120C275.33 120 291 104.33 291 85C291 65.67 275.33 50 256 50C236.67 50 221 65.67 221 85C221 104.33 236.67 120 256 120Z" fill="white"/>
<path fill-rule="evenodd" clip-rule="evenodd" d="M426 487C459.137 487 486 460.137 486 427C486 393.863 459.137 367 426 367C392.863 367 366 393.863 366 427C366 460.137 392.863 487 426 487ZM426 462C445.33 462 461 446.33 461 427C461 407.67 445.33 392 426 392C406.67 392 391 407.67 391 427C391 446.33 406.67 462 426 462Z" fill="white"/>
<path fill-rule="evenodd" clip-rule="evenodd" d="M86 315C119.137 315 146 288.137 146 255C146 221.863 119.137 195 86 195C52.8629 195 26 221.863 26 255C26 288.137 52.8629 315 86 315ZM86 290C105.33 290 121 274.33 121 255C121 235.67 105.33 220 86 220C66.67 220 51 235.67 51 255C51 274.33 66.67 290 86 290Z" fill="white"/>
<path d="M138.727 49.3388C143.609 44.4573 143.609 36.5427 138.727 31.6612C133.846 26.7796 125.931 26.7796 121.05 31.6612L85.6942 67.0165L50.3388 31.6612C45.4573 26.7796 37.5427 26.7796 32.6612 31.6612C27.7796 36.5427 27.7796 44.4573 32.6612 49.3389L68.0165 84.6942L32.6612 120.05C27.7796 124.931 27.7796 132.846 32.6612 137.727C37.5427 142.609 45.4573 142.609 50.3388 137.727L85.6942 102.372L121.05 137.727C125.931 142.609 133.846 142.609 138.727 137.727C143.609 132.846 143.609 124.931 138.727 120.05L103.372 84.6942L138.727 49.3388Z" fill="white"/>
<path d="M478.727 49.3388C483.609 44.4573 483.609 36.5427 478.727 31.6612C473.846 26.7796 465.931 26.7796 461.05 31.6612L425.694 67.0165L390.339 31.6612C385.457 26.7796 377.543 26.7796 372.661 31.6612C367.78 36.5427 367.78 44.4573 372.661 49.3389L408.016 84.6942L372.661 120.05C367.78 124.931 367.78 132.846 372.661 137.727C377.543 142.609 385.457 142.609 390.339 137.727L425.694 102.372L461.05 137.727C465.931 142.609 473.846 142.609 478.727 137.727C483.609 132.846 483.609 124.931 478.727 120.05L443.372 84.6942L478.727 49.3388Z" fill="white"/>
<path d="M478.727 220.339C483.609 215.457 483.609 207.543 478.727 202.661C473.846 197.78 465.931 197.78 461.05 202.661L425.694 238.017L390.339 202.661C385.457 197.78 377.543 197.78 372.661 202.661C367.78 207.543 367.78 215.457 372.661 220.339L408.016 255.694L372.661 291.049C367.78 295.931 367.78 303.846 372.661 308.727C377.543 313.609 385.457 313.609 390.339 308.727L425.694 273.372L461.05 308.727C465.931 313.609 473.846 313.609 478.727 308.727C483.609 303.846 483.609 295.931 478.727 291.05L443.372 255.694L478.727 220.339Z" fill="white"/>
<path d="M308.727 391.339C313.609 386.457 313.609 378.543 308.727 373.661C303.846 368.78 295.931 368.78 291.05 373.661L255.694 409.017L220.339 373.661C215.457 368.78 207.543 368.78 202.661 373.661C197.78 378.543 197.78 386.457 202.661 391.339L238.016 426.694L202.661 462.049C197.78 466.931 197.78 474.846 202.661 479.727C207.543 484.609 215.457 484.609 220.339 479.727L255.694 444.372L291.05 479.727C295.931 484.609 303.846 484.609 308.727 479.727C313.609 474.846 313.609 466.931 308.727 462.05L273.372 426.694L308.727 391.339Z" fill="white"/>
<path d="M138.727 391.339C143.609 386.457 143.609 378.543 138.727 373.661C133.846 368.78 125.931 368.78 121.05 373.661L85.6942 409.017L50.3388 373.661C45.4573 368.78 37.5427 368.78 32.6612 373.661C27.7796 378.543 27.7796 386.457 32.6612 391.339L68.0165 426.694L32.6612 462.049C27.7796 466.931 27.7796 474.846 32.6612 479.727C37.5427 484.609 45.4573 484.609 50.3388 479.727L85.6942 444.372L121.05 479.727C125.931 484.609 133.846 484.609 138.727 479.727C143.609 474.846 143.609 466.931 138.727 462.05L103.372 426.694L138.727 391.339Z" fill="white"/>
</svg>
